# xmcd
#
# Track frame offsets:
#	150
#	23689
#	46835
#	61788
#	79734
#	104435
#	125198
#	144652
#	164691
#	185840
#
# Disc length: 2800 seconds
#
# Revision: 2
# Processed by: cddbd v1.5.2PL0 Copyright (c) Steve Scherf et al.
# Submitted via: EZCDAudioConverter 8.0.2.1
#
DISCID=8c0aee0a
DTITLE=Hạ Vy - Chiều Tây Đô. Xua Đi Huyền Thoại. Giấc Ngủ Đầu Nôi
DYEAR=2005
DGENRE=Contemporary Pop
TTITLE0=Hành trình trên đất phù sa
TTITLE1=Chờ người
TTITLE2=Áo trắng Gò Công
TTITLE3=Giấc Ngủ Đầu Nôi
TTITLE4=Gái nhà nghèo
TTITLE5=Em bỏ dòng sông
TTITLE6=Lý Cái Mơn
TTITLE7=Chiều đồng quê
TTITLE8=Bông điên điển
TTITLE9=Ngẫu hứng lý ru con
EXTD=
EXTT0=
EXTT1=
EXTT2=
EXTT3=
EXTT4=
EXTT5=
EXTT6=
EXTT7=
EXTT8=
EXTT9=
PLAYORDER=
